<svg xmlns="http://www.w3.org/2000/svg" enable-background="new 0 0 24 24" viewBox="0 0 24 24" id="v-live"><path fill="#6766DB" d="M13.284,11.64c0.015-0.009,0.028-0.022,0.044-0.031c0.155-0.453,1.362-3.992,1.282-3.759c0.128-0.38,0.338-0.672,0.592-0.888l1.022-2.994c0.521-1.563-0.318-3.273-1.875-3.813c-1.563-0.524-3.273,0.314-3.813,1.873L9.13,6.158L7.868,2.112c-0.238-0.773-0.771-1.405-1.5-1.779c-0.714-0.367-1.541-0.439-2.26-0.2C2.53,0.635,1.644,2.324,2.133,3.899l1.699,5.432c0.212,0.681,0.312,1.002,0.367,1.169H11.5C12.344,10.5,12.974,10.995,13.284,11.64z"></path><path fill="#110638" d="M11.5,24C6.813,24,3,20.187,3,15.5v-5C3,10.224,3.224,10,3.5,10S4,10.224,4,10.5v5c0,4.136,3.364,7.5,7.5,7.5c3.922,0,7.208-3.063,7.481-6.975c0.02-0.276,0.262-0.474,0.534-0.464c0.275,0.02,0.483,0.258,0.464,0.534C19.67,20.528,15.945,24,11.5,24z"></path><path fill="#110638" d="M11 18.5c-.276 0-.5-.224-.5-.5v-.74c0-1.246-1.014-2.26-2.26-2.26H8c-.276 0-.5-.224-.5-.5S7.724 14 8 14h.24c1.798 0 3.26 1.462 3.26 3.26V18C11.5 18.276 11.276 18.5 11 18.5zM18.667 16.78c-.153 0-.295-.015-.418-.038-.115-.022-.206-.056-.278-.096-.985-.39-1.502-1.493-1.156-2.506l1.292-3.786c.445-1.301 1.686-1.435 2.349-1.31.116.022.208.056.28.097.464.183.838.527 1.059.978.235.479.27 1.022.097 1.527L20.6 15.432C20.237 16.495 19.344 16.78 18.667 16.78zM18.455 15.763c.203.035.939.107 1.199-.654l1.292-3.786 0 0c.086-.253.069-.524-.048-.764-.118-.24-.322-.419-.575-.505-.024-.008-.048-.019-.071-.03-.202-.037-.938-.108-1.199.653l-1.292 3.786c-.178.522.102 1.091.624 1.27C18.409 15.741 18.432 15.751 18.455 15.763z"></path><path fill="#110638" d="M11.073,15.011c-0.234,0-0.485-0.008-0.754-0.016C9.715,14.978,8.965,14.955,8.024,15c-0.26,0.009-0.51-0.2-0.523-0.476C7.487,14.249,7.7,14.014,7.976,14c0.979-0.047,1.752-0.023,2.373-0.005c1.316,0.042,1.751,0.03,2.203-0.434c0.526-0.513,0.515-1.172,0.333-1.621C12.7,11.486,12.239,11,11.5,11h-8C3.224,11,3,10.776,3,10.5S3.224,10,3.5,10h8c1.034,0,1.919,0.599,2.311,1.564c0.389,0.958,0.178,1.994-0.552,2.705C12.646,14.898,11.977,15.011,11.073,15.011z"></path><path fill="#110638" d="M14.591,16.669c-0.143,0-0.285-0.011-0.423-0.034c-1.241-0.202-2.107-1.207-2.107-2.446c0-0.276,0.224-0.5,0.5-0.5s0.5,0.224,0.5,0.5c0,0.925,0.683,1.364,1.268,1.458c0.579,0.094,1.355-0.109,1.648-0.987l1.421-4.163c0.133-0.412,0.248-0.733,0.342-0.995C17.918,9.003,18,8.774,18,8.5c0-0.935-0.677-1.377-1.256-1.472c-0.577-0.089-1.36,0.104-1.657,0.973l0,0c0,0.001,0,0.002-0.001,0.004s-0.001,0.003-0.001,0.005h0c-0.021,0.057-0.05,0.108-0.087,0.152c-0.143,0.524-0.492,1.547-1.213,3.66c-0.089,0.261-0.374,0.401-0.635,0.312c-0.261-0.089-0.401-0.374-0.312-0.635l1.299-3.808c0.395-1.174,1.537-1.854,2.769-1.649C17.948,6.212,19,7.039,19,8.5c0,0.448-0.121,0.785-0.32,1.341c-0.091,0.253-0.203,0.565-0.334,0.973l-1.422,4.167C16.525,16.175,15.528,16.669,14.591,16.669z"></path></svg>